<?xml version="1.0" encoding="iso-8859-1"?>
<!-- Uploaded to: SVG Repo, www.svgrepo.com, Generator: SVG Repo Mixer Tools -->
<svg fill="#000000" height="800px" width="800px" version="1.1" id="Layer_1" xmlns="http://www.w3.org/2000/svg" xmlns:xlink="http://www.w3.org/1999/xlink" 
	 viewBox="0 0 490.8 490.8" xml:space="preserve">
<g>
	<g>
		<path d="M487.68,237.827l-74.667-74.667c-4.267-4.053-10.987-3.947-15.04,0.213c-3.947,4.16-3.947,10.667,0,14.827l56.427,56.427
			H256.107V11.053c0-5.333-3.84-10.133-9.067-10.88c-6.613-0.96-12.267,4.16-12.267,10.56v224H33.92l48.853-57.067
			c3.733-4.587,2.987-11.307-1.6-15.04C76.8,159,70.293,159.533,66.56,163.8l-64,74.667c-3.413,3.947-3.413,9.92,0,13.867l64,74.667
			c3.947,4.373,10.667,4.693,15.04,0.747c4.267-3.84,4.693-10.24,1.173-14.613L33.92,256.067h200.853v223.68
			c0,5.333,3.84,10.133,9.067,10.88c6.613,0.96,12.267-4.16,12.267-10.56v-224H454.4l-56.427,56.427
			c-4.267,4.053-4.373,10.88-0.213,15.04c4.053,4.267,10.88,4.373,15.04,0.213c0.107-0.107,0.213-0.213,0.213-0.213l74.667-74.667
			C491.84,248.813,491.84,241.987,487.68,237.827z"/>
	</g>
</g>
</svg>